<svg id="Capa_1" enable-background="new 0 0 512 512" height="512" viewBox="0 0 512 512" width="512" xmlns="http://www.w3.org/2000/svg"><g><path d="m508.175 245.994c-1.15-1.284-28.674-31.804-73.237-62.585-59.58-41.155-121.456-62.909-178.938-62.909s-119.357 21.753-178.938 62.908c-44.563 30.782-72.086 61.302-73.237 62.586-5.101 5.696-5.101 14.316 0 20.013 1.15 1.284 28.674 31.804 73.237 62.585 59.581 41.155 121.457 62.908 178.938 62.908s119.357-21.753 178.938-62.908c44.563-30.782 72.087-61.301 73.237-62.585 5.101-5.697 5.101-14.317 0-20.013zm-146.675 10.006c0 58.173-47.327 105.5-105.5 105.5-.994 0-1.983-.03-2.974-.044-56.803-1.581-102.526-48.278-102.526-105.456 0-58.173 47.327-105.5 105.5-105.5.994 0 1.983.03 2.974.044 56.804 1.581 102.526 48.278 102.526 105.456zm-325.556.006c17.534-17.145 57.38-52.698 109.165-77.782-15.497 22.029-24.609 48.857-24.609 77.776 0 28.905 9.103 55.721 24.586 77.743-19.173-9.253-36.223-19.683-50.367-29.417-26.916-18.524-47.474-37.25-58.775-48.32zm330.948 77.77c15.496-22.028 24.608-48.857 24.608-77.776 0-28.905-9.104-55.721-24.586-77.743 19.174 9.253 36.223 19.683 50.367 29.417 26.916 18.524 47.472 37.248 58.775 48.32-17.533 17.145-57.379 52.699-109.164 77.782z"/><path d="m201.576 204.033c-14.334 15.008-21.701 34.719-20.745 55.502.859 18.673 8.674 36.298 22.005 49.629s30.956 21.146 49.629 22.005c1.2.055 2.395.083 3.587.083 19.455 0 37.773-7.321 51.915-20.827 15.015-14.34 23.283-33.668 23.283-54.425v-.178c-.02-8.025-4.534-15.159-11.783-18.616-7.33-3.497-15.818-2.5-22.151 2.604-3.486 2.809-7.883 4.191-12.414 3.899-8.744-.57-16.041-7.867-16.61-16.61-.295-4.52 1.09-8.929 3.899-12.415 5.103-6.332 6.101-14.82 2.604-22.152-3.457-7.249-10.59-11.764-18.651-11.783h-.144c-20.757.001-40.085 8.27-54.424 23.284zm81.374 69.613c5.218.34 10.395-.166 15.344-1.464-2.36 6.183-6.094 11.816-11.048 16.547-9.023 8.618-20.885 13.05-33.402 12.471-23.075-1.062-41.982-19.968-43.044-43.043-.576-12.518 3.854-24.38 12.471-33.404 4.731-4.954 10.365-8.687 16.548-11.047-1.298 4.948-1.805 10.121-1.464 15.344 1.554 23.868 20.727 43.04 44.595 44.596z"/></g></svg>